<?xml version="1.0" encoding="UTF-8" standalone="no"?>
<!DOCTYPE svg  PUBLIC '-//W3C//DTD SVG 1.1//EN'  'http://www.w3.org/Graphics/SVG/1.1/DTD/svg11.dtd'>
<svg xmlns="http://www.w3.org/2000/svg" version="1.1">
<defs>
<font id="DIN-Bold" horiz-adv-x="543">
<font-face font-weight="400" ascent="760" underline-position="-264" x-height="521" panose-1="2 0 8 3 4 0 0 2 0 4" descent="-240" unicode-range="U+0020-00FE" font-family="DIN-Bold" cap-height="712" units-per-em="1000" bbox="-45 -206 926 1015" underline-thickness="87"/>
<missing-glyph/>
<glyph unicode=" " glyph-name="space" horiz-adv-x="232"/>
<glyph unicode="!" d="M123 0v133h138v-133h-138zM241 223h-98l-31 489h160z" glyph-name="exclam" horiz-adv-x="347"/>
<glyph unicode='&quot;' d="M274 501v211h121v-211h-121zM68 501v211h122v-211h-122z" glyph-name="quotedbl" horiz-adv-x="464"/>
<glyph unicode="#" d="M302 420l-17 -108h116l16 108h-115zM554 420l-16 -108h69v-122h-89l-30 -190h-137l31 190h-116l-30 -190h-137l30 190h-69v122h89l16 108h-70v121h89l28 177h137l-28 -177h116l28 177h136l-27 -177h69v-121h-89z" glyph-name="numbersign" horiz-adv-x="691"/>
<glyph unicode="$" d="M268 595q-44 -6 -65.5 -30.5t-21.5 -57.5q0 -14 5 -27t16 -24q23 -22 66 -28v167zM435 206q0 39 -22 60q-15 14 -33 18.5t-38 7.5v-172q45 5 69 27t24 59zM571 210q0 -46 -16 -82.5t-44.5 -63.5t-68 -43.5t-86.5 -22.5v-112h-101v108q-72 2 -129.5 23t-106.5 71l90 90 q32 -32 73 -45t86 -15v181l-32 4q-45 6 -80 21.5t-58 38.5q-51 51 -51 139q0 87 55 145t153 69v90h101v-89q61 -4 108.5 -23.5t88.5 -58.5l-88 -87q-25 24 -58.5 35t-64.5 13v-174l38 -6q49 -8 81 -21.5t55 -34.5q29 -27 42 -64.5t13 -85.5z" glyph-name="dollar" horiz-adv-x="619"/>
<glyph unicode="%" d="M248 577q0 29 -13.5 43t-37.5 14q-51 0 -51 -57v-91q0 -29 13.5 -43t37.5 -14t37.5 14t13.5 43v91zM702 226q0 29 -13.5 43t-37.5 14q-51 0 -51 -57v-91q0 -57 51 -57q24 0 37.5 14t13.5 43v91zM307 0h-102l337 712h102zM342 482q0 -34 -11.5 -59.5t-31.5 -43t-46.5 -26 t-55.5 -8.5q-30 0 -56 8.5t-46 26t-31.5 43t-11.5 59.5v99q0 34 11.5 59.5t31.5 42.5t46 26t56 9q29 0 55.5 -9t46.5 -26t31.5 -42.5t11.5 -59.5v-99v0zM796 131q0 -34 -11.5 -59.5t-31.5 -43t-46.5 -26t-55.5 -8.5q-30 0 -56 8.5t-46 26t-31.5 43t-11.5 59.5v99 q0 34 11.5 59.5t31.5 42.5t46 26t56 9q29 0 55.5 -9t46.5 -26t31.5 -42.5t11.5 -59.5v-99v0z" glyph-name="percent" horiz-adv-x="848"/>
<glyph unicode="&amp;" d="M366 549q0 25 -15.5 41.5t-43.5 16.5q-29 0 -44 -16.5t-15 -41.5q0 -20 14 -39t33 -41q8 5 19 12.5l11 7.5q17 12 29 26.5t12 33.5zM258 321q-32 -23 -52 -47t-20 -62q0 -22 8.5 -40.5t23 -31.5t34 -20.5t42.5 -7.5q32 0 56.5 10t49.5 32zM531 0l-52 62 q-12 -10 -28 -21.5t-38 -22t-51 -17.5t-67 -7q-118 0 -176.5 57.5t-58.5 158.5q0 34 11.5 62.5t29.5 52t41 42.5t46 34q-11 12 -23.5 28t-23 34.5t-17.5 40.5t-7 48q0 36 13 66.5t37.5 52.5t59.5 34.5t80 12.5q42 0 75.5 -12.5t57.5 -35t36.5 -53.5t12.5 -67q0 -42 -20 -71 t-53 -53q-1 -1 -9 -7t-20.5 -15t-21.5 -15l120 -142q17 23 25.5 55t10.5 70h123q-4 -69 -21 -124t-55 -97l128 -151h-165z" glyph-name="ampersand" horiz-adv-x="721"/>
<glyph unicode="&apos;" d="M68 501v211h123v-211h-123z" glyph-name="quotesingle" horiz-adv-x="259"/>
<glyph unicode="(" d="M194 -94q-25 25 -48 49.5t-40 53.5q-17 30 -21.5 63t-4.5 66v436q0 33 4.5 66t21.5 63q17 29 40 53.5t48 49.5l87 -87q-18 -18 -30.5 -31.5t-25.5 -35.5q-15 -27 -15 -84v-424q0 -57 15 -84q13 -22 25.5 -35.5t30.5 -31.5z" glyph-name="parenleft" horiz-adv-x="336"/>
<glyph unicode=")" d="M256 138q0 -33 -4.5 -66t-21.5 -63q-17 -29 -40 -53.5t-48 -49.5l-88 88q18 18 30.5 31t25.5 35q15 27 15 84v424q0 57 -15 84q-13 22 -25.5 35t-30.5 31l88 88q25 -25 48 -49.5t40 -53.5q17 -30 21.5 -63t4.5 -66v-436v0z" glyph-name="parenright" horiz-adv-x="336"/>
<glyph unicode="*" d="M394 381l-105 66l4 -125h-92l5 125l-106 -66l-45 79l110 58l-110 58l45 80l106 -67l-5 125h92l-4 -125l105 67l46 -80l-111 -58l111 -58z" glyph-name="asterisk" horiz-adv-x="494"/>
<glyph unicode="+" d="M333 216v-160h-122v160h-161v122h161v160h122v-160h160v-122h-160z" glyph-name="plus"/>
<glyph unicode="," d="M68 -165v307h143v-197z" glyph-name="comma" horiz-adv-x="279"/>
<glyph unicode="-" d="M59 225v121h308v-121h-308z" glyph-name="hyphen" horiz-adv-x="426"/>
<glyph unicode="­" d="M59 225v121h308v-121h-308z" glyph-name="hyphen" horiz-adv-x="426"/>
<glyph unicode="." d="M68 0v148h149v-148h-149z" glyph-name="period" horiz-adv-x="285"/>
<glyph unicode="/" d="M122 -74h-122l285 860h122z" glyph-name="slash" horiz-adv-x="403"/>
<glyph unicode="0" d="M358 504q0 45 -24 71t-62 26t-62.5 -26t-24.5 -71v-297q0 -45 24.5 -70.5t62.5 -25.5t62 25.5t24 70.5v297zM488 206q0 -51 -17.5 -90.5t-47 -66.5t-69 -41t-82.5 -14q-44 0 -83 14t-69 41t-47.5 66.5t-17.5 90.5v300q0 51 17.5 90.5t47.5 66.5t69 41t83 14 q43 0 82.5 -14t69 -41t47 -66.5t17.5 -90.5v-300v0z" glyph-name="zero"/>
<glyph unicode="1" d="M248 0v572l-145 -126v140l145 126h130v-712h-130z" glyph-name="one"/>
<glyph unicode="2" d="M59 0v117l266 309q20 23 28.5 42t8.5 44q0 40 -22 64.5t-64 24.5q-16 0 -31.5 -4.5t-28 -15t-20 -28t-7.5 -43.5h-130q0 49 16.5 87.5t46 65.5t69 41t85.5 14q47 0 87 -14.5t68.5 -41t44.5 -65t16 -86.5q0 -26 -5 -46.5t-14.5 -39.5t-24 -37.5t-32.5 -39.5l-199 -231h275 v-117h-433z" glyph-name="two"/>
<glyph unicode="3" d="M495 206q0 -53 -18 -93t-49 -66.5t-72 -39.5t-87 -13q-44 0 -84.5 12t-72 37.5t-50.5 65t-20 95.5h130q1 -24 9 -41.5t21 -29t30.5 -17t36.5 -5.5q42 0 69 25.5t27 73.5q0 45 -26 71.5t-74 26.5h-19v113h19q48 0 69 25.5t21 63.5q0 45 -26 68t-61 23q-37 0 -61.5 -22.5 t-26.5 -63.5h-130q1 48 18.5 85.5t46.5 63.5t68.5 40t84.5 14q47 0 87 -15t69 -42t45 -64.5t16 -82.5q0 -58 -23.5 -92.5t-58.5 -53.5q38 -20 65 -58.5t27 -103.5z" glyph-name="three"/>
<glyph unicode="4" d="M447 101v-101h-125v101h-291v123l244 488h142l-244 -488h149v133h125v-133h65v-123h-65z" glyph-name="four"/>
<glyph unicode="5" d="M494 240q0 -60 -12 -104.5t-51 -83.5q-24 -24 -62.5 -41t-94.5 -17t-96 17t-63 40q-33 33 -44 71t-14 77h130q5 -42 25.5 -65t61.5 -23q39 0 62 23q17 17 22.5 44.5t5.5 61.5q0 62 -19.5 95t-67.5 33q-40 0 -59.5 -18.5t-26.5 -39.5h-119v402h406v-117h-288v-153 q14 14 42.5 25t64.5 11q45 0 78 -13t55 -35q42 -42 53 -90.5t11 -99.5z" glyph-name="five"/>
<glyph unicode="6" d="M362 215q0 48 -25 76t-67 28q-40 0 -66 -27t-26 -77t26 -77t66 -27t66 27t26 77zM492 216q0 -53 -17 -94t-47 -69.5t-70.5 -43.5t-87.5 -15t-87.5 14.5t-70.5 42.5t-47 69t-17 94q0 49 18 95t42 95l150 308h142l-148 -294q13 5 26.5 7t26.5 2q36 0 69.5 -14.5t60 -41.5 t42 -66.5t15.5 -88.5z" glyph-name="six"/>
<glyph unicode="7" d="M272 0h-141l231 595h-188v-112h-124v229h453v-117z" glyph-name="seven"/>
<glyph unicode="8" d="M360 511q0 38 -25 64t-63 26t-63.5 -26t-25.5 -64q0 -39 25.5 -64.5t63.5 -25.5t63 25.5t25 64.5zM370 209q0 42 -28 70.5t-70 28.5t-70 -28.5t-28 -70.5t28 -70t70 -28t70 28t28 70zM500 207q0 -52 -18 -91.5t-49 -66.5t-72.5 -41t-88.5 -14t-88.5 14t-72.5 41t-49 66.5 t-18 91.5q0 33 8.5 58t21.5 44.5t28.5 33.5t30.5 24q-14 9 -28 23t-25.5 32t-19 41t-7.5 52q0 47 17.5 84.5t47.5 64t69.5 40.5t84.5 14t84.5 -14t69 -40.5t47 -64t17.5 -84.5q0 -29 -7.5 -52t-19 -41t-26 -32t-27.5 -23q15 -10 30.5 -24t29 -33.5t22 -44.5t8.5 -58z" glyph-name="eight"/>
<glyph unicode="9" d="M365 497q0 50 -26 77t-66 27t-66 -27t-26 -77q0 -48 25 -76t67 -28q40 0 66 27t26 77zM495 498q0 -49 -17.5 -95t-41.5 -95l-151 -308h-141l148 294q-13 -5 -26.5 -7t-26.5 -2q-36 0 -70 14.5t-60 41.5t-42 66t-16 89q0 52 17 93.5t47 70t70.5 43.5t87.5 15t87.5 -14.5 t70.5 -42.5t47 -69t17 -94z" glyph-name="nine"/>
<glyph unicode=":" d="M93 0v148h148v-148h-148zM93 271v148h148v-148h-148z" glyph-name="colon" horiz-adv-x="309"/>
<glyph unicode="&lt;" d="M69 229v113l406 187v-137l-241 -107l241 -106v-137z" glyph-name="less"/>
<glyph unicode="=" d="M50 116v122h443v-122h-443zM50 333v122h443v-122h-443z" glyph-name="equal"/>
<glyph unicode="&gt;" d="M69 42v137l241 106l-241 107v137l406 -187v-113z" glyph-name="greater"/>
<glyph unicode="?" d="M212 0v133h138v-133h-138zM487 518q0 -38 -14 -67.5t-35 -57.5l-74 -98q-8 -10 -13 -24t-5 -27v-21h-130v30q0 32 9 55t29 49l74 95q12 16 20.5 33t8.5 34q0 35 -21.5 58.5t-59.5 23.5q-40 0 -60 -24t-20 -59h-130q0 46 16.5 83.5t45 63t66.5 39.5t82 14q42 0 80.5 -13.5 t67.5 -39t46 -62.5t17 -85z" glyph-name="question" horiz-adv-x="523"/>
<glyph unicode="@" d="M576 231q0 60 -17.5 94t-65.5 34t-65 -34t-17 -94t17 -94.5t65 -34.5t65.5 34.5t17.5 94.5zM579 0v46q-24 -26 -51 -39t-69 -13q-79 0 -126 50q-15 16 -24.5 35t-14.5 41.5t-6.5 49.5t-1.5 61q0 67 8 109.5t38 75.5q22 24 54.5 37.5t71.5 13.5q38 0 66.5 -12t51.5 -37v45 q0 32 -7.5 57t-27.5 45t-45 27.5t-55 7.5h-124q-30 0 -54.5 -7t-45.5 -28q-22 -22 -28.5 -46t-6.5 -56v-289q0 -19 2 -32.5t7.5 -25t14 -21t20.5 -20.5l-90 -90q-21 19 -36 37t-24.5 39t-14 46.5t-4.5 59.5v299q0 61 13.5 107.5t48.5 81.5t81 48t107 13h144q59 0 106 -13 t82 -48t48 -81t13 -108v-469z" glyph-name="at" horiz-adv-x="758"/>
<glyph unicode="A" d="M322 502l-90 -259h177zM488 0l-42 126h-253l-43 -126h-145l259 712h109l260 -712h-145z" glyph-name="A" horiz-adv-x="638"/>
<glyph unicode="B" d="M450 506q0 37 -23.5 59.5t-68.5 22.5h-136v-164h136q45 0 68.5 22.5t23.5 59.5zM460 212q0 36 -22.5 61.5t-70.5 25.5h-145v-175h145q48 0 70.5 26t22.5 62zM599 205q0 -50 -16 -88t-45 -64t-69 -39.5t-88 -13.5h-298v712h286q105 0 162.5 -54t57.5 -146q0 -30 -8.5 -54 t-22 -42.5t-29 -31.5t-28.5 -19q16 -8 33.5 -20.5t31.5 -31.5t23.5 -45.5t9.5 -62.5z" glyph-name="B" horiz-adv-x="658"/>
<glyph unicode="C" d="M583 219q-9 -56 -32.5 -98t-58 -70.5t-78.5 -42.5t-93 -14q-59 0 -106.5 20t-85.5 58q-27 27 -41.5 57.5t-20.5 65.5t-7 75t-1 86t1 86t7 75t20.5 65.5t41.5 57.5q38 38 85.5 58t106.5 20q50 0 93.5 -14t78 -42.5t58 -70.5t32.5 -98h-141q-11 43 -39 72t-81 29 q-29 0 -51.5 -10t-37.5 -27q-10 -11 -17 -24.5t-11 -35.5t-5.5 -56t-1.5 -85t1.5 -85t5.5 -56t11 -35.5t17 -24.5q15 -17 37.5 -27t51.5 -10q53 0 81 29t39 72h141v0z" glyph-name="C" horiz-adv-x="620"/>
<glyph unicode="D" d="M461 359q0 40 -1 69.5t-4 51.5t-9 37t-16 27q-18 22 -43 33t-61 11h-105v-464h105q36 0 61 11t43 33q19 24 24.5 67t5.5 124zM600 359v-80q0 -39 -6 -76t-21 -71t-45 -64q-35 -35 -83.5 -51.5t-104.5 -16.5h-257v712h257q56 0 104.5 -16.5t83.5 -51.5q30 -30 45 -63 t21 -69t6 -75v-78z" glyph-name="D" horiz-adv-x="659"/>
<glyph unicode="E" d="M83 0v712h469v-124h-330v-167h281v-124h-281v-173h330v-124h-469z" glyph-name="E" horiz-adv-x="605"/>
<glyph unicode="F" d="M222 588v-175h281v-124h-281v-289h-139v712h469v-124h-330z" glyph-name="F" horiz-adv-x="590"/>
<glyph unicode="G" d="M590 292q0 -77 -15.5 -127.5t-52.5 -89.5q-43 -45 -93.5 -63t-107.5 -18q-59 0 -106.5 20t-85.5 58q-27 27 -41.5 57.5t-20.5 65.5t-7 75t-1 86t1 86t7 75t20.5 65.5t41.5 57.5q38 38 85 58t107 20q62 0 109 -19t80 -50.5t52.5 -72.5t26.5 -86h-140q-12 51 -43 77.5 t-85 26.5q-29 0 -51.5 -10.5t-37.5 -27.5q-10 -11 -16.5 -24.5t-10.5 -35.5t-5.5 -55.5t-1.5 -84.5t1.5 -85t5.5 -56t10.5 -35.5t16.5 -24.5q15 -17 37.5 -27t51.5 -10q32 0 57 10.5t42 29.5q17 20 24.5 43.5t7.5 51.5v27h-131v116h269v-104v0z" glyph-name="G" horiz-adv-x="648"/>
<glyph unicode="H" d="M463 0v298h-241v-298h-139v712h139v-291h241v291h139v-712h-139z" glyph-name="H" horiz-adv-x="685"/>
<glyph unicode="I" d="M83 0v712h139v-712h-139z" glyph-name="I" horiz-adv-x="305"/>
<glyph unicode="J" d="M437 234q0 -59 -20.5 -104t-55.5 -75t-80.5 -45.5t-94.5 -15.5q-58 0 -100.5 16.5t-82.5 56.5l92 91q17 -17 36.5 -28.5t54.5 -11.5q51 0 81.5 30t30.5 92v472h139v-478v0z" glyph-name="J" horiz-adv-x="511"/>
<glyph unicode="K" d="M497 0l-183 324l-92 -110v-214h-139v712h139v-310l251 310h169l-236 -283l253 -429h-162z" glyph-name="K" horiz-adv-x="665"/>
<glyph unicode="L" d="M83 0v712h139v-588h323v-124h-462z" glyph-name="L" horiz-adv-x="575"/>
<glyph unicode="M" d="M589 0v415l-136 -270h-94l-137 270v-415h-139v712h137l186 -385l185 385h137v-712h-139z" glyph-name="M" horiz-adv-x="811"/>
<glyph unicode="N" d="M504 0l-282 437v-437h-139v712h124l282 -436v436h139v-712h-124z" glyph-name="N" horiz-adv-x="711"/>
<glyph unicode="O" d="M446 356q0 51 -1.5 84.5t-5.5 55.5t-11 35.5t-17 24.5q-15 17 -37.5 27.5t-51.5 10.5t-52 -10.5t-38 -27.5q-10 -11 -16.5 -24.5t-10.5 -35.5t-5.5 -55.5t-1.5 -84.5t1.5 -84.5t5.5 -55.5t10.5 -35.5t16.5 -24.5q15 -17 38 -27.5t52 -10.5t51.5 10.5t37.5 27.5 q10 11 17 24.5t11 35.5t5.5 55.5t1.5 84.5zM585 356q0 -46 -1 -86t-7.5 -75t-21 -65.5t-41.5 -57.5q-38 -38 -84.5 -58t-107.5 -20t-108 20t-85 58q-27 27 -41.5 57.5t-20.5 65.5t-7 75t-1 86t1 86t7 75t20.5 65.5t41.5 57.5q38 38 85 58t108 20t107.5 -20t84.5 -58 q27 -27 41.5 -57.5t21 -65.5t7.5 -75t1 -86z" glyph-name="O" horiz-adv-x="644"/>
<glyph unicode="P" d="M455 490q0 44 -27.5 71t-75.5 27h-130v-195h130q48 0 75.5 26.5t27.5 70.5zM594 490q0 -45 -16 -85.5t-46.5 -71t-74 -48t-98.5 -17.5h-137v-268h-139v712h276q55 0 98.5 -17.5t74 -48t46.5 -71t16 -85.5z" glyph-name="P" horiz-adv-x="628"/>
<glyph unicode="Q" d="M446 356q0 51 -1.5 84.5t-5.5 55.5t-11 35.5t-17 24.5q-15 17 -37.5 27.5t-51.5 10.5t-52 -10.5t-38 -27.5q-10 -11 -16.5 -24.5t-10.5 -35.5t-5.5 -55.5t-1.5 -84.5t1.5 -84.5t5.5 -55.5t10.5 -35.5t16.5 -24.5q15 -17 38 -27.5t52 -10.5q27 0 46 13l-62 61l74 73 l53 -53q8 23 10.5 56.5t2.5 87.5zM529 -30l-63 63q-60 -39 -144 -39q-61 0 -108 20t-85 58q-27 27 -41.5 57.5t-20.5 65.5t-7 75t-1 86t1 86t7 75t20.5 65.5t41.5 57.5q38 38 85 58t108 20t107.5 -20t84.5 -58q27 -27 41.5 -57.5t21 -65.5t7.5 -75t1 -86q0 -40 -0.5 -75 t-4.5 -66t-13 -58.5t-26 -52.5l61 -61z" glyph-name="Q" horiz-adv-x="643"/>
<glyph unicode="R" d="M454 494q0 42 -27.5 68t-73.5 26h-131v-188h131q46 0 73.5 26t27.5 68zM461 0l-139 284h-100v-284h-139v712h279q54 0 97 -17.5t73 -47t45.5 -69t15.5 -84.5q0 -38 -10.5 -68t-28.5 -53.5t-41.5 -40t-49.5 -25.5l159 -307h-161z" glyph-name="R" horiz-adv-x="654"/>
<glyph unicode="S" d="M543 210q0 -52 -20.5 -92t-56 -67.5t-83.5 -42t-104 -14.5q-81 0 -144.5 20.5t-115.5 73.5l90 90q34 -34 78 -47t94 -13q62 0 94 22.5t32 65.5q0 39 -22 60q-11 10 -24.5 15.5t-38.5 9.5l-86 12q-91 13 -138 59q-51 51 -51 140q0 48 17 87.5t49 68t78 44.5t104 16 q74 0 129 -19t101 -64l-88 -87q-34 32 -72.5 40.5t-73.5 8.5q-56 0 -83 -26.5t-27 -63.5q0 -14 5 -27t16 -24q11 -10 27.5 -17.5t38.5 -10.5l84 -12q49 -7 81 -20.5t55 -34.5q29 -27 42 -65t13 -86z" glyph-name="S" horiz-adv-x="591"/>
<glyph unicode="T" d="M355 588v-588h-139v588h-186v124h511v-124h-186z" glyph-name="T" horiz-adv-x="571"/>
<glyph unicode="U" d="M596 244q0 -57 -20.5 -103t-56 -78.5t-83 -50.5t-102.5 -18t-102.5 18t-83 50.5t-56 78.5t-20.5 103v468h139v-463q0 -62 33 -96.5t90 -34.5t90.5 34.5t33.5 96.5v463h138v-468v0z" glyph-name="U" horiz-adv-x="668"/>
<glyph unicode="V" d="M342 0h-104l-235 712h144l143 -464l143 464h145z" glyph-name="V" horiz-adv-x="581"/>
<glyph unicode="W" d="M690 0h-116l-131 432l-131 -432h-116l-190 712h145l110 -449l130 449h104l130 -449l111 449h145z" glyph-name="W" horiz-adv-x="887"/>
<glyph unicode="X" d="M439 0l-138 248l-137 -248h-159l221 365l-207 347h158l124 -230l125 230h157l-207 -347l222 -365h-159z" glyph-name="X" horiz-adv-x="603"/>
<glyph unicode="Y" d="M355 292v-292h-138v292l-214 420h151l133 -287l131 287h151z" glyph-name="Y" horiz-adv-x="572"/>
<glyph unicode="Z" d="M40 0v112l304 476h-291v124h455v-110l-305 -478h305v-124h-468z" glyph-name="Z" horiz-adv-x="548"/>
<glyph unicode="[" d="M80 -74v860h257v-117h-127v-626h127v-117h-257z" glyph-name="bracketleft" horiz-adv-x="378"/>
<glyph unicode="\" d="M281 -74l-281 847h122l281 -847h-122z" glyph-name="backslash" horiz-adv-x="403"/>
<glyph unicode="]" d="M42 -74v116h127v628h-127v116h257v-860h-257z" glyph-name="bracketright" horiz-adv-x="378"/>
<glyph unicode="^" d="M403 389l-102 188l-102 -188h-136l178 330h120l178 -330h-136z" glyph-name="asciicircum" horiz-adv-x="602"/>
<glyph unicode="_" d="M0 -178v87h602v-87h-602z" glyph-name="underscore" horiz-adv-x="602"/>
<glyph unicode="`" d="M218 604l-114 170h137l64 -170h-87z" glyph-name="grave" horiz-adv-x="500"/>
<glyph unicode="a" d="M337 220h-103q-35 0 -54 -15.5t-19 -43.5q0 -27 18.5 -43.5t56.5 -16.5q27 0 46 4t36 21q19 18 19 66v28zM340 0v45q-26 -26 -54.5 -38t-73.5 -12q-87 0 -133 46q-21 22 -32 52t-11 65q0 31 11 58.5t33 48t55.5 32.5t78.5 12h123v26q0 43 -22.5 62.5t-74.5 19.5 q-19 0 -33 -2.5t-25.5 -7.5t-21.5 -13t-20 -20l-83 81q38 42 80.5 57t107.5 15q110 0 166 -46t56 -138v-343h-127z" glyph-name="a" horiz-adv-x="534"/>
<glyph unicode="b" d="M379 261q0 32 -3 59t-12 47t-26.5 31.5t-46.5 11.5t-46.5 -11.5t-26.5 -31.5t-12 -47t-3 -59t3 -59.5t12 -47.5t26.5 -31.5t46.5 -11.5t46.5 11.5t26.5 31.5t12 47.5t3 59.5zM509 261q0 -29 -1 -60t-6 -60t-16 -55t-30 -45q-22 -22 -55.5 -34.5t-71.5 -12.5 q-42 0 -72.5 12.5t-57.5 42.5v-49h-126v712h130v-237q26 29 56 40.5t70 11.5q38 0 71.5 -12.5t55.5 -34.5q19 -20 30 -45.5t16 -54.5t6 -59.5t1 -59.5z" glyph-name="b" horiz-adv-x="560"/>
<glyph unicode="c" d="M452 65q-35 -36 -76.5 -53.5t-95.5 -17.5q-39 0 -80.5 12t-75 42.5t-55.5 82t-22 130.5t22 130.5t55.5 81.5t75 42t80.5 12q54 0 95.5 -17t76.5 -53l-88 -88q-20 22 -39 31.5t-45 9.5q-46 0 -74 -34q-15 -19 -22 -46t-7 -69q0 -80 29 -116q28 -34 74 -34q26 0 45 9.5 t39 31.5l88 -87v0z" glyph-name="c" horiz-adv-x="480"/>
<glyph unicode="d" d="M358 261q0 32 -3 59t-12.5 47t-27 31.5t-46.5 11.5t-46.5 -11.5t-26.5 -31.5t-12 -47t-3 -59t3 -59.5t12 -47.5t26.5 -31.5t46.5 -11.5t46.5 11.5t27 31.5t12.5 47.5t3 59.5zM361 0v49q-27 -30 -57 -42.5t-72 -12.5q-38 0 -72 12.5t-56 34.5q-20 19 -30.5 45t-15.5 55 t-6 60t-1 60t1 59.5t6 59.5t15.5 54.5t30.5 45.5q22 22 55.5 34.5t71.5 12.5q40 0 70.5 -11.5t56.5 -40.5v237h130v-712h-127z" glyph-name="d" horiz-adv-x="561"/>
<glyph unicode="e" d="M373 309q-1 17 -3.5 29.5t-8.5 26.5q-11 23 -32.5 38.5t-54.5 15.5t-54.5 -15.5t-32.5 -38.5q-6 -14 -8.5 -26.5t-3.5 -29.5h198v0zM175 220q0 -51 29.5 -83.5t84.5 -32.5q43 0 68 12t50 37l79 -77q-20 -20 -40 -35t-43.5 -25.5t-51.5 -16t-63 -5.5q-46 0 -89.5 12 t-77 42.5t-54 82t-20.5 130.5q0 64 16.5 113.5t46.5 83.5t71.5 51.5t92.5 17.5q54 0 96.5 -19t71.5 -52t44 -78.5t15 -99.5v-58h-326z" glyph-name="e" horiz-adv-x="548"/>
<glyph unicode="f" d="M219 407v-407h-130v407h-54v99h54v65q0 28 9 54.5t27.5 47.5t47 34t68.5 13h74v-110h-51q-45 0 -45 -47v-57h96v-99h-96z" glyph-name="f" horiz-adv-x="342"/>
<glyph unicode="g" d="M352 275q0 26 -2.5 50.5t-11.5 43t-26 30t-46 11.5t-46 -11.5t-25.5 -30t-11 -43t-2.5 -50.5t2.5 -50.5t11 -43.5t25.5 -30.5t46 -11.5t46 11.5t26 30.5t11.5 43.5t2.5 50.5zM482 19q0 -47 -16 -86.5t-46 -68.5t-72.5 -45t-94.5 -16q-60 0 -104 14.5t-85 53.5l81 82 q22 -21 45.5 -30.5t56.5 -9.5q29 0 49 9.5t32.5 24.5t18 34.5t5.5 39.5v53q-26 -29 -56 -40.5t-68 -11.5t-70 12t-54 34q-18 18 -29 40t-16 47.5t-6.5 55.5t-1.5 64t1.5 63.5t6.5 55t16 47.5t29 40q22 22 54.5 34t70.5 12q42 0 71 -12.5t56 -42.5v49h126v-502v0z" glyph-name="g" horiz-adv-x="555"/>
<glyph unicode="h" d="M372 0v318q0 26 -7.5 43.5t-19.5 28.5t-27.5 15.5t-30.5 4.5t-30 -5t-27 -15.5t-19.5 -28.5t-7.5 -43v-318h-130v712h130v-239q26 27 58 40.5t67 13.5q43 0 75.5 -14t54.5 -39.5t33 -60.5t11 -76v-337h-130z" glyph-name="h" horiz-adv-x="569"/>
<glyph unicode="i" d="M71 610v106h133v-106h-133zM73 0v521h130v-521h-130z" glyph-name="i" horiz-adv-x="275"/>
<glyph unicode="j" d="M71 610v106h133v-106h-133zM203 -46q0 -28 -8.5 -54.5t-27 -47.5t-47.5 -34t-69 -13h-74v110h50q25 0 35.5 12t10.5 35v559h130v-567v0z" glyph-name="j" horiz-adv-x="275"/>
<glyph unicode="k" d="M386 0l-128 217l-55 -62v-155h-130v712h130v-404l173 213h157l-186 -210l200 -311h-161z" glyph-name="k" horiz-adv-x="559"/>
<glyph unicode="l" d="M220 0q-40 0 -69 13t-47.5 34t-27 47.5t-8.5 54.5v563h130v-555q0 -23 10.5 -35t35.5 -12h50v-110h-74z" glyph-name="l" horiz-adv-x="325"/>
<glyph unicode="m" d="M679 0v315q0 27 -7.5 45t-20 29t-28 16t-30.5 5t-30.5 -5t-28 -15.5t-20.5 -28.5t-8 -43v-318h-130v315q0 27 -7.5 45t-20 29t-28 16t-30.5 5t-30.5 -5t-28 -16t-20.5 -29t-8 -45v-315h-130v521h127v-48q26 26 60 40t70 14q44 0 78.5 -16t59.5 -50q33 35 70 50.5t86 15.5 q39 0 72.5 -12t55.5 -34q32 -32 44.5 -68.5t12.5 -79.5v-333h-130z" glyph-name="m" horiz-adv-x="876"/>
<glyph unicode="n" d="M376 0v315q0 27 -7.5 45t-20 29t-28 16t-30.5 5t-30.5 -5t-28 -16t-20.5 -29t-8 -45v-315h-130v521h127v-48q26 27 60 40.5t70 13.5q39 0 70 -12t53 -34q32 -32 42.5 -68.5t10.5 -79.5v-333h-130z" glyph-name="n" horiz-adv-x="573"/>
<glyph unicode="o" d="M362 261q0 41 -5 73.5t-25 52.5q-23 23 -61 23q-37 0 -60 -23q-20 -20 -25 -52.5t-5 -73.5t5 -74t25 -53q23 -23 60 -23q38 0 61 23q20 20 25 53t5 74zM492 261q0 -71 -12 -118.5t-47 -84.5q-24 -26 -64 -45t-98 -19t-97.5 19t-63.5 45q-35 37 -47 84.5t-12 118.5t12 118 t47 84q24 26 63.5 45t97.5 19t98 -19t64 -45q35 -37 47 -84t12 -118z" glyph-name="o"/>
<glyph unicode="p" d="M379 261q0 32 -3 59t-12 47t-26.5 31.5t-46.5 11.5t-46.5 -11.5t-26.5 -31.5t-12 -47t-3 -59t3 -59.5t12 -47.5t26.5 -31.5t46.5 -11.5t46.5 11.5t26.5 31.5t12 47.5t3 59.5zM509 261q0 -29 -1 -60t-6 -60t-16 -55t-30 -45q-22 -22 -55.5 -34.5t-71.5 -12.5 q-40 0 -70 11.5t-56 40.5v-237h-130v712h126v-49q27 30 57.5 42.5t72.5 12.5q38 0 71.5 -12.5t55.5 -34.5q19 -20 30 -45.5t16 -54.5t6 -59.5t1 -59.5z" glyph-name="p" horiz-adv-x="560"/>
<glyph unicode="q" d="M358 261q0 32 -3 59t-12.5 47t-27 31.5t-46.5 11.5t-46.5 -11.5t-26.5 -31.5t-12 -47t-3 -59t3 -59.5t12 -47.5t26.5 -31.5t46.5 -11.5t46.5 11.5t27 31.5t12.5 47.5t3 59.5zM358 -191v237q-26 -29 -56.5 -40.5t-70.5 -11.5q-38 0 -71.5 12.5t-55.5 34.5q-20 19 -30.5 45 t-15.5 55t-6 60t-1 60t1 59.5t6 59.5t15.5 54.5t30.5 45.5q22 22 56 34.5t72 12.5q42 0 72 -12.5t57 -42.5v49h127v-712h-130z" glyph-name="q" horiz-adv-x="561"/>
<glyph unicode="r" d="M356 379q-15 15 -30 23t-39 8q-15 0 -30 -5.5t-27 -17.5t-19.5 -30t-7.5 -43v-314h-130v521h127v-50q19 23 54 39.5t77 16.5q38 0 67 -11t56 -38z" glyph-name="r" horiz-adv-x="455"/>
<glyph unicode="s" d="M465 164q0 -43 -17 -75t-47 -53t-70.5 -31.5t-86.5 -10.5q-31 0 -60 2.5t-57 10.5t-54 22.5t-51 39.5l85 85q32 -32 70.5 -40.5t68.5 -8.5q17 0 33.5 3t29.5 9.5t21 16.5t8 25q0 20 -12 32.5t-43 15.5l-82 8q-71 7 -111.5 40.5t-40.5 105.5q0 40 16.5 71t44 52t64 32 t76.5 11q61 0 111 -13t88 -48l-80 -81q-23 20 -55 27.5t-66 7.5q-39 0 -56.5 -15t-17.5 -35q0 -7 2 -14.5t8 -13.5t16.5 -11t27.5 -6l82 -8q78 -8 116.5 -47.5t38.5 -105.5z" glyph-name="s" horiz-adv-x="501"/>
<glyph unicode="t" d="M236 0q-40 0 -68.5 13t-47 34t-27 47.5t-8.5 54.5v258h-55v99h55v154h130v-154h92v-99h-92v-250q0 -47 45 -47h47v-110h-71z" glyph-name="t" horiz-adv-x="352"/>
<glyph unicode="u" d="M373 0v48q-26 -27 -60 -40.5t-70 -13.5q-39 0 -70 12t-53 34q-32 32 -42.5 68.5t-10.5 79.5v333h130v-315q0 -27 7.5 -45t20 -29t28 -16t30.5 -5t30.5 5t28 16t20.5 29t8 45v315h130v-521h-127z" glyph-name="u" horiz-adv-x="573"/>
<glyph unicode="v" d="M298 0h-102l-192 521h137l106 -322l105 322h137z" glyph-name="v" horiz-adv-x="493"/>
<glyph unicode="w" d="M596 0h-107l-109 327l-109 -327h-107l-160 521h138l84 -322l106 322h95l107 -322l84 322h137z" glyph-name="w" horiz-adv-x="759"/>
<glyph unicode="x" d="M359 0l-96 156l-95 -156h-156l180 266l-173 255h156l88 -149l89 149h156l-173 -255l180 -266h-156z" glyph-name="x" horiz-adv-x="527"/>
<glyph unicode="y" d="M267 -84q-17 -45 -39 -67q-23 -23 -51.5 -31.5t-60.5 -8.5h-51v117h30q28 0 41.5 9t23.5 38l22 64l-178 484h137l108 -322l104 322h137z" glyph-name="y" horiz-adv-x="494"/>
<glyph unicode="z" d="M37 0v99l231 305h-218v117h384v-99l-234 -305h234v-117h-397z" glyph-name="z" horiz-adv-x="478"/>
<glyph unicode="{" d="M312 -74q-39 0 -66.5 9.5t-45.5 27.5q-42 42 -42 111v145q0 43 -17 60q-8 8 -21 13.5t-31 5.5h-46v116h46q18 0 31 5.5t21 13.5q17 17 17 60v145q0 69 42 111q18 18 45.5 27.5t66.5 9.5h102v-117h-53q-23 0 -36 -3t-21 -11q-8 -9 -12 -23.5t-4 -40.5v-135q0 -27 -7 -44.5 t-17.5 -28.5t-22.5 -17t-22 -10q10 -4 22 -10t22.5 -17t17.5 -28.5t7 -44.5v-135q0 -26 4 -40.5t12 -23.5q8 -8 21 -11t36 -3h53v-117h-102z" glyph-name="braceleft" horiz-adv-x="457"/>
<glyph unicode="|" d="M110 -74v860h130v-860h-130z" glyph-name="bar" horiz-adv-x="350"/>
<glyph unicode="}" d="M368 298q-18 0 -31 -5.5t-21 -13.5q-17 -17 -17 -60v-145q0 -69 -42 -111q-18 -18 -45.5 -27.5t-66.5 -9.5h-102v117h53q23 0 36 3t21 11q8 9 12 23.5t4 40.5v135q0 27 7 44.5t17.5 28.5t22.5 17t22 10q-10 4 -22 10t-22.5 17t-17.5 28.5t-7 44.5v135q0 26 -4 40.5 t-12 23.5q-8 8 -21 11t-36 3h-53v117h102q39 0 66.5 -9.5t45.5 -27.5q42 -42 42 -111v-145q0 -43 17 -60q8 -8 21 -13.5t31 -5.5h46v-116h-46z" glyph-name="braceright" horiz-adv-x="457"/>
<glyph unicode="~" d="M569 281q-23 -23 -43 -39.5t-39.5 -27t-39.5 -15t-43 -4.5q-31 0 -58 8.5t-59 25.5q-22 11 -41 17.5t-41 6.5q-20 0 -39 -7t-47 -35l-82 82q23 23 43 39.5t39.5 27t39 15t42.5 4.5q31 0 58 -8.5t59 -25.5q22 -11 40.5 -17.5t40.5 -6.5q20 0 39.5 7t47.5 35l83 -82v0z" glyph-name="asciitilde" horiz-adv-x="606"/>
<glyph unicode=" " glyph-name="nonbreakingspace" horiz-adv-x="232"/>
<glyph unicode="¡" d="M87 388v133h137v-133h-137zM75 -191l32 489h97l32 -489h-161z" glyph-name="exclamdown" horiz-adv-x="347"/>
<glyph unicode="¢" d="M246 507q-21 -6 -38 -26q-15 -19 -23 -46t-8 -69t8 -69t23 -46q15 -20 38 -26v282zM469 180q-29 -30 -61.5 -48.5t-74.5 -26.5v-105h-101v105q-39 8 -73 28t-59 52.5t-39 77.5t-14 103t14 103t39 77.5t59 52.5t73 28v85h101v-85q42 -8 74.5 -26.5t61.5 -48.5l-86 -84 q-15 16 -29.5 26t-34.5 15v-286q20 5 34.5 15t29.5 26l86 -84v0z" glyph-name="cent" horiz-adv-x="499"/>
<glyph unicode="£" d="M101 0v297h-61v100h61v81q0 59 20.5 104t55.5 75t80 45.5t95 15.5q58 0 100 -16.5t82 -56.5l-91 -91q-17 17 -36.5 28.5t-54.5 11.5q-51 0 -82 -30t-31 -92v-75h113v-100h-113v-173h295v-124h-433z" glyph-name="sterling" horiz-adv-x="579"/>
<glyph unicode="¤" d="M452 286q0 24 -9.5 45.5t-25.5 37.5t-37.5 25t-45.5 9t-45.5 -9t-37.5 -25t-25 -37.5t-9 -45.5t9 -45.5t25 -37.5t37.5 -25t45.5 -9t45.5 9t37.5 25t25.5 37.5t9.5 45.5zM525 10l-74 73q-26 -15 -55.5 -23.5t-61.5 -8.5t-61 8.5t-55 23.5l-74 -73l-86 86l74 73 q-15 26 -24 55.5t-9 61.5t9 61.5t24 55.5l-74 73l86 86l74 -73q26 15 55 23.5t61 8.5t61.5 -8.5t55.5 -23.5l74 73l85 -86l-73 -73q15 -26 23.5 -55.5t8.5 -61.5t-8.5 -61.5t-23.5 -55.5l73 -73z" glyph-name="currency" horiz-adv-x="669"/>
<glyph unicode="¥" d="M432 442h74v-100h-125l-26 -50v-51h151v-100h-151v-141h-138v141h-152v100h152v51l-26 50h-126v100h75l-137 270h151l132 -288l132 288h150z" glyph-name="yen" horiz-adv-x="571"/>
<glyph unicode="¦" d="M110 -74v350h130v-350h-130zM110 436v350h130v-350h-130z" glyph-name="brokenbar" horiz-adv-x="353"/>
<glyph unicode="§" d="M348 269q0 26 -7 41.5t-18 26.5q-10 9 -23.5 15t-32.5 6t-33.5 -6t-23.5 -15q-11 -11 -17.5 -26.5t-6.5 -41.5q0 -27 7.5 -42.5t16.5 -24.5t23.5 -15t33.5 -6t33 6t23 15t17 24.5t8 42.5zM473 274q0 -28 -9 -51.5t-22.5 -42.5t-29 -33t-29.5 -22q33 -17 57 -49t24 -90 q0 -46 -17 -80.5t-45 -57t-63.5 -34t-72.5 -11.5q-36 0 -71.5 10t-63.5 31.5t-45.5 55t-18.5 81.5h125q2 -28 21 -45.5t53 -17.5q35 0 54 17.5t19 46.5q0 20 -14.5 40t-55.5 34l-62 21q-36 12 -63.5 28t-45.5 38.5t-27.5 52t-9.5 69.5q0 28 8.5 51.5t22 42.5t29.5 33t31 22 q-32 17 -54 46.5t-22 84.5q0 34 11.5 65t35.5 55t60 38.5t85 14.5t85 -13.5t59.5 -36.5t35.5 -54.5t12 -67.5h-122q-2 33 -21.5 47t-48.5 14q-35 0 -52.5 -16.5t-17.5 -42.5q0 -44 67 -66l62 -20q72 -23 109 -66t37 -122z" glyph-name="section" horiz-adv-x="531"/>
<glyph unicode="¨" d="M84 606v125h111v-125h-111zM305 606v125h111v-125h-111z" glyph-name="dieresis" horiz-adv-x="500"/>
<glyph unicode="©" d="M561 212q-28 -25 -59 -38.5t-73 -13.5q-38 0 -70.5 12.5t-56.5 37.5t-38 61.5t-14 84.5t14 85t38 61.5t56.5 37.5t70.5 13q42 0 72.5 -14t59.5 -39l-56 -56q-20 17 -36.5 24.5t-39.5 7.5q-48 0 -71 -32.5t-23 -87.5t23 -87.5t71 -32.5q23 0 39.5 7.5t36.5 24.5l56 -56v0z M697 356q0 60 -21 111.5t-58 89t-87.5 59t-108.5 21.5t-108.5 -21.5t-87.5 -59t-58.5 -89t-21.5 -111.5t21.5 -111.5t58.5 -89t87.5 -59t108.5 -21.5t108.5 21.5t87.5 59t58 89t21 111.5zM784 356q0 -75 -28.5 -141t-77.5 -115t-115 -77.5t-141 -28.5t-141 28.5t-115 77.5 t-77.5 115t-28.5 141t28.5 141t77.5 115t115 77.5t141 28.5t141 -28.5t115 -77.5t77.5 -115t28.5 -141z" glyph-name="copyright" horiz-adv-x="844"/>
<glyph unicode="ª" d="M287 472h-81q-28 0 -42 -13t-14 -34t14 -33.5t43 -12.5q22 0 37 3.5t28 15.5q15 14 15 51v23zM289 296v36q-21 -21 -43 -30.5t-58 -9.5q-69 0 -105 38q-35 35 -35 92q0 25 8.5 47t26 38.5t44.5 26t63 9.5h97v20q0 34 -17.5 49.5t-59.5 15.5q-29 0 -45.5 -7.5t-33.5 -26.5 l-67 65q31 34 65 46t86 12q88 0 132.5 -37t44.5 -110v-274h-103z" glyph-name="ordfeminine" horiz-adv-x="454"/>
<glyph unicode="«" d="M34 275l249 248v-155l-94 -93l94 -93v-155zM312 275l250 248v-155l-96 -93l96 -93v-155z" glyph-name="guillemotleft" horiz-adv-x="628"/>
<glyph unicode="¬" d="M376 94v145h-330v121h451v-266h-121z" glyph-name="logicalnot"/>
<glyph unicode="®" d="M489 428q0 20 -14.5 35t-38.5 15h-60v-100h60q24 0 38.5 15t14.5 35zM487 164l-70 149h-41v-149h-86v385h157q29 0 53 -10t40.5 -26.5t25.5 -38.5t9 -46q0 -40 -21.5 -65.5t-49.5 -36.5l81 -162h-98zM698 356q0 60 -21 111.5t-58.5 89t-88 59t-108.5 21.5 q-59 0 -109 -21.5t-87.5 -59t-58.5 -89t-21 -111.5t21 -111.5t58.5 -89t87.5 -59t109 -21.5q58 0 108.5 21.5t88 59t58.5 89t21 111.5zM784 356q0 -75 -28.5 -141t-77.5 -115t-115 -77.5t-141 -28.5t-141 28.5t-115 77.5t-77.5 115t-28.5 141t28.5 141t77.5 115t115 77.5 t141 28.5t141 -28.5t115 -77.5t77.5 -115t28.5 -141z" glyph-name="registered" horiz-adv-x="844"/>
<glyph unicode="°" d="M318 542q0 34 -23.5 57t-56.5 23t-55.5 -23t-22.5 -57t23 -57t56 -23t56 23t23 57zM423 542q0 -38 -14.5 -71.5t-39.5 -58.5t-58.5 -39.5t-71.5 -14.5t-71.5 14.5t-58.5 39.5t-39.5 58.5t-14.5 71.5t14.5 72t39.5 59t58.5 39.5t71.5 14.5t71.5 -14.5t58.5 -39.5t39.5 -59 t14.5 -72z" glyph-name="degree" horiz-adv-x="478"/>
<glyph unicode="±" d="M50 0v122h443v-122h-443zM333 341v-161h-122v161h-161v121h161v161h122v-161h160v-121h-160z" glyph-name="plusminus"/>
<glyph unicode="²" d="M43 285v85l156 171q12 13 17 23t5 24q0 20 -11 31.5t-31 11.5q-15 0 -28.5 -9t-13.5 -35h-94q0 31 10.5 55t29 40.5t43.5 25t53 8.5q59 0 97.5 -34t38.5 -94q0 -33 -13.5 -55t-38.5 -49l-105 -114h157v-85h-272z" glyph-name="twosuperior" horiz-adv-x="358"/>
<glyph unicode="³" d="M325 412q0 -33 -11.5 -58t-31 -41t-45 -24t-53.5 -8q-27 0 -52 7.5t-45 23.5t-32 41t-12 60h94q0 -24 13.5 -36t33.5 -12q21 0 34 13t13 37q0 21 -13 34.5t-36 13.5h-13v81h13q23 0 33.5 13.5t10.5 29.5q0 22 -12.5 33t-29.5 11t-29.5 -11t-12.5 -31h-94q0 30 10.5 53.5 t29 40t43.5 25t53 8.5q29 0 54 -9.5t43 -26t28.5 -39.5t10.5 -51q0 -35 -14 -54t-31 -30q19 -12 34.5 -34t15.5 -60z" glyph-name="threesuperior" horiz-adv-x="368"/>
<glyph unicode="´" d="M282 604h-87l64 170h137z" glyph-name="acute" horiz-adv-x="500"/>
<glyph unicode="¶" d="M455 -191v779h-100v-779h-130v499q-38 0 -72 16t-60.5 43t-42 63.5t-15.5 78.5q0 49 16.5 87t47 63.5t73 39t94.5 13.5h319v-903h-130z" glyph-name="paragraph" horiz-adv-x="668"/>
<glyph unicode="¸" d="M281 -206h-121l69 146h96z" glyph-name="cedilla" horiz-adv-x="500"/>
<glyph unicode="¹" d="M128 285v321l-90 -78v106l90 78h95v-427h-95z" glyph-name="onesuperior" horiz-adv-x="292"/>
<glyph unicode="º" d="M302 504q0 32 -3.5 58.5t-19.5 42.5q-18 18 -48 18t-48 -18q-16 -16 -19.5 -42.5t-3.5 -58.5t3.5 -58t19.5 -42q18 -18 48 -18t48 18q16 16 19.5 42t3.5 58zM407 504q0 -57 -9.5 -94t-38.5 -67q-20 -20 -51 -35.5t-77 -15.5t-77 15.5t-51 35.5q-29 30 -38.5 67t-9.5 94 t9.5 94.5t38.5 67.5q20 20 51 35.5t77 15.5t77 -15.5t51 -35.5q29 -30 38.5 -67.5t9.5 -94.5z" glyph-name="ordmasculine" horiz-adv-x="462"/>
<glyph unicode="»" d="M67 27v155l95 93l-95 93v155l249 -248zM345 27v155l94 93l-94 93v155l250 -248z" glyph-name="guillemotright" horiz-adv-x="628"/>
<glyph unicode="¼" d="M128 285v321l-90 -78v106l90 78h95v-427h-95zM763 57v-57h-90v57h-176v89l143 281h103l-144 -281h74v62h90v-62h33v-89h-33zM288 0h-102l337 712h102z" glyph-name="onequarter" horiz-adv-x="836"/>
<glyph unicode="½" d="M128 285v321l-90 -78v106l90 78h95v-427h-95zM283 0h-101l337 712h101zM547 0v85l156 171q12 13 17.5 23t5.5 24q0 20 -11.5 31.5t-31.5 11.5q-15 0 -28 -9t-13 -35h-95q0 31 10.5 55t29 40.5t43.5 25t53 8.5q59 0 97.5 -34t38.5 -94q0 -33 -13.5 -55t-38.5 -49 l-105 -114h157v-85h-272z" glyph-name="onehalf" horiz-adv-x="862"/>
<glyph unicode="¾" d="M792 57v-57h-90v57h-176v89l143 281h103l-144 -281h74v62h90v-62h33v-89h-33zM325 412q0 -33 -11.5 -58t-31 -41t-45 -24t-53.5 -8q-27 0 -52 7.5t-45 23.5t-32 41t-12 60h94q0 -24 13.5 -36t33.5 -12q21 0 34 13t13 37q0 21 -13 34.5t-36 13.5h-13v81h13q23 0 33.5 13.5 t10.5 29.5q0 22 -12.5 33t-29.5 11t-29.5 -11t-12.5 -31h-94q0 30 10.5 53.5t29 40t43.5 25t53 8.5q29 0 54 -9.5t43 -26t28.5 -39.5t10.5 -51q0 -35 -14 -54t-31 -30q19 -12 34.5 -34t15.5 -60zM320 0h-102l337 712h102z" glyph-name="threequarters" horiz-adv-x="865"/>
<glyph unicode="¿" d="M173 388v133h138v-133h-138zM457 4q0 -47 -16.5 -84t-45.5 -63t-67.5 -40t-81.5 -14q-42 0 -80.5 13.5t-67 39t-45.5 62.5t-17 85q0 38 14 67.5t35 57.5l74 99q8 10 13 24t5 27v20h130v-30q0 -32 -9 -55t-29 -49l-74 -95q-12 -16 -20.5 -33t-8.5 -34q0 -35 21 -58.5 t59 -23.5q40 0 60.5 24.5t20.5 59.5h130v0z" glyph-name="questiondown" horiz-adv-x="523"/>
<glyph unicode="À" d="M285 781l-114 170h137l64 -170h-87zM322 502l-90 -259h177zM488 0l-42 126h-253l-43 -126h-145l259 712h109l260 -712h-145z" glyph-name="Agrave" horiz-adv-x="638"/>
<glyph unicode="Á" d="M349 781h-87l64 170h137zM322 502l-90 -259h177zM488 0l-42 126h-253l-43 -126h-145l259 712h109l260 -712h-145z" glyph-name="Aacute" horiz-adv-x="638"/>
<glyph unicode="Â" d="M322 502l-90 -259h177zM400 781l-83 91l-83 -91h-101l132 169h104l132 -169h-101zM488 0l-42 126h-253l-43 -126h-145l259 712h109l260 -712h-145z" glyph-name="Acircumflex" horiz-adv-x="638"/>
<glyph unicode="Ã" d="M322 502l-90 -259h177zM497 851q-33 -33 -58.5 -46t-54.5 -13q-22 0 -39 5.5t-38 17.5q-14 8 -27.5 13t-28.5 5q-13 0 -26 -4.5t-33 -24.5l-56 57q33 33 58 46t54 13q23 0 39.5 -5t37.5 -18q15 -9 27.5 -13.5t27.5 -4.5q13 0 26 4.5t33 24.5l58 -57v0zM488 0l-42 126 h-253l-43 -126h-145l259 712h109l260 -712h-145z" glyph-name="Atilde" horiz-adv-x="638"/>
<glyph unicode="Ä" d="M151 783v125h111v-125h-111zM372 783v125h111v-125h-111zM322 502l-90 -259h177zM488 0l-42 126h-253l-43 -126h-145l259 712h109l260 -712h-145z" glyph-name="Adieresis" horiz-adv-x="638"/>
<glyph unicode="Å" d="M375 884q0 24 -17 41t-41 17t-41 -17t-17 -41t17 -41.5t41 -17.5t41 17.5t17 41.5zM322 502l-90 -259h177zM448 884q0 -27 -10.5 -51t-28 -41.5t-41.5 -28t-51 -10.5t-51 10.5t-41.5 28t-28 41.5t-10.5 51t10.5 51t28 41.5t41.5 28t51 10.5t51 -10t41.5 -28t28 -42 t10.5 -51zM488 0l-42 126h-253l-43 -126h-145l259 712h109l260 -712h-145z" glyph-name="Aring" horiz-adv-x="638"/>
<glyph unicode="Æ" d="M458 588l-165 -315h165v315zM458 0v156h-225l-81 -156h-149l372 712h551v-124h-330v-168h282v-124h-282v-172h330v-124h-468z" glyph-name="AE" horiz-adv-x="979"/>
<glyph unicode="Ç" d="M335 -206h-121l69 146h96zM583 219q-9 -56 -32.5 -98t-58 -70.5t-78.5 -42.5t-93 -14q-59 0 -106.5 20t-85.5 58q-27 27 -41.5 57.5t-20.5 65.5t-7 75t-1 86t1 86t7 75t20.5 65.5t41.5 57.5q38 38 85.5 58t106.5 20q50 0 93.5 -14t78 -42.5t58 -70.5t32.5 -98h-141 q-11 43 -39 72t-81 29q-29 0 -51.5 -10t-37.5 -27q-10 -11 -17 -24.5t-11 -35.5t-5.5 -56t-1.5 -85t1.5 -85t5.5 -56t11 -35.5t17 -24.5q15 -17 37.5 -27t51.5 -10q53 0 81 29t39 72h141v0z" glyph-name="Ccedilla" horiz-adv-x="620"/>
<glyph unicode="È" d="M278 781l-114 170h137l64 -170h-87zM83 0v712h469v-124h-330v-167h281v-124h-281v-173h330v-124h-469z" glyph-name="Egrave" horiz-adv-x="605"/>
<glyph unicode="É" d="M341 781h-87l64 170h137zM83 0v712h469v-124h-330v-167h281v-124h-281v-173h330v-124h-469z" glyph-name="Eacute" horiz-adv-x="605"/>
<glyph unicode="Ê" d="M393 781l-83 91l-83 -91h-101l132 169h104l132 -169h-101zM83 0v712h469v-124h-330v-167h281v-124h-281v-173h330v-124h-469z" glyph-name="Ecircumflex" horiz-adv-x="605"/>
<glyph unicode="Ë" d="M365 783v125h111v-125h-111zM144 783v125h111v-125h-111zM83 0v712h469v-124h-330v-167h281v-124h-281v-173h330v-124h-469z" glyph-name="Edieresis" horiz-adv-x="605"/>
<glyph unicode="Ì" d="M136 781l-114 170h137l64 -170h-87zM83 0v712h139v-712h-139z" glyph-name="Igrave" horiz-adv-x="305"/>
<glyph unicode="Í" d="M170 781h-87l64 170h137zM83 0v712h139v-712h-139z" glyph-name="Iacute" horiz-adv-x="305"/>
<glyph unicode="Î" d="M235 781l-83 91l-83 -91h-101l132 169h104l132 -169h-101zM83 0v712h139v-712h-139z" glyph-name="Icircumflex" horiz-adv-x="305"/>
<glyph unicode="Ï" d="M205 783v125h111v-125h-111zM-16 783v125h111v-125h-111zM83 0v712h139v-712h-139z" glyph-name="Idieresis" horiz-adv-x="305"/>
<glyph unicode="Ð" d="M484 354q0 47 -1 77t-3.5 50t-7.5 32.5t-13 23.5q-18 26 -44 39t-65 13h-105v-176h116v-106h-116v-184h105q40 0 67 14t44 39q7 11 12 22t7 30t3 48.5t1 77.5zM623 356q0 -49 -0.5 -87.5t-6 -70.5t-18.5 -60t-38 -55q-35 -39 -85.5 -61t-113.5 -22h-255v307h-69v106h69 v299h257q60 0 110 -21t87 -63q25 -29 38 -57t18.5 -60t6 -69.5t0.5 -85.5z" glyph-name="Eth" horiz-adv-x="682"/>
<glyph unicode="Ñ" d="M536 851q-33 -33 -58.5 -46t-54.5 -13q-22 0 -39 5.5t-38 17.5q-14 8 -27.5 13t-28.5 5q-13 0 -26 -4.5t-33 -24.5l-56 57q33 33 58 46t54 13q23 0 39.5 -5t37.5 -18q15 -9 27.5 -13.5t27.5 -4.5q13 0 26 4.5t33 24.5l58 -57v0zM504 0l-282 437v-437h-139v712h124 l282 -436v436h139v-712h-124z" glyph-name="Ntilde" horiz-adv-x="711"/>
<glyph unicode="Ò" d="M290 781l-114 170h137l64 -170h-87zM446 356q0 51 -1.5 84.5t-5.5 55.5t-11 35.5t-17 24.5q-15 17 -37.5 27.5t-51.5 10.5t-52 -10.5t-38 -27.5q-10 -11 -16.5 -24.5t-10.5 -35.5t-5.5 -55.5t-1.5 -84.5t1.5 -84.5t5.5 -55.5t10.5 -35.5t16.5 -24.5q15 -17 38 -27.5 t52 -10.5t51.5 10.5t37.5 27.5q10 11 17 24.5t11 35.5t5.5 55.5t1.5 84.5zM585 356q0 -46 -1 -86t-7.5 -75t-21 -65.5t-41.5 -57.5q-38 -38 -84.5 -58t-107.5 -20t-108 20t-85 58q-27 27 -41.5 57.5t-20.5 65.5t-7 75t-1 86t1 86t7 75t20.5 65.5t41.5 57.5q38 38 85 58 t108 20t107.5 -20t84.5 -58q27 -27 41.5 -57.5t21 -65.5t7.5 -75t1 -86z" glyph-name="Ograve" horiz-adv-x="644"/>
<glyph unicode="Ó" d="M354 781h-87l64 170h137zM446 356q0 51 -1.5 84.5t-5.5 55.5t-11 35.5t-17 24.5q-15 17 -37.5 27.5t-51.5 10.5t-52 -10.5t-38 -27.5q-10 -11 -16.5 -24.5t-10.5 -35.5t-5.5 -55.5t-1.5 -84.5t1.5 -84.5t5.5 -55.5t10.5 -35.5t16.5 -24.5q15 -17 38 -27.5t52 -10.5 t51.5 10.5t37.5 27.5q10 11 17 24.5t11 35.5t5.5 55.5t1.5 84.5zM585 356q0 -46 -1 -86t-7.5 -75t-21 -65.5t-41.5 -57.5q-38 -38 -84.5 -58t-107.5 -20t-108 20t-85 58q-27 27 -41.5 57.5t-20.5 65.5t-7 75t-1 86t1 86t7 75t20.5 65.5t41.5 57.5q38 38 85 58t108 20 t107.5 -20t84.5 -58q27 -27 41.5 -57.5t21 -65.5t7.5 -75t1 -86z" glyph-name="Oacute" horiz-adv-x="644"/>
<glyph unicode="Ô" d="M405 781l-83 91l-83 -91h-101l132 169h104l132 -169h-101zM446 356q0 51 -1.5 84.5t-5.5 55.5t-11 35.5t-17 24.5q-15 17 -37.5 27.5t-51.5 10.5t-52 -10.5t-38 -27.5q-10 -11 -16.5 -24.5t-10.5 -35.5t-5.5 -55.5t-1.5 -84.5t1.5 -84.5t5.5 -55.5t10.5 -35.5t16.5 -24.5 q15 -17 38 -27.5t52 -10.5t51.5 10.5t37.5 27.5q10 11 17 24.5t11 35.5t5.5 55.5t1.5 84.5zM585 356q0 -46 -1 -86t-7.5 -75t-21 -65.5t-41.5 -57.5q-38 -38 -84.5 -58t-107.5 -20t-108 20t-85 58q-27 27 -41.5 57.5t-20.5 65.5t-7 75t-1 86t1 86t7 75t20.5 65.5t41.5 57.5 q38 38 85 58t108 20t107.5 -20t84.5 -58q27 -27 41.5 -57.5t21 -65.5t7.5 -75t1 -86z" glyph-name="Ocircumflex" horiz-adv-x="644"/>
<glyph unicode="Õ" d="M502 851q-33 -33 -58.5 -46t-54.5 -13q-22 0 -39 5.5t-38 17.5q-14 8 -27.5 13t-28.5 5q-13 0 -26 -4.5t-33 -24.5l-56 57q33 33 58 46t54 13q23 0 39.5 -5t37.5 -18q15 -9 27.5 -13.5t27.5 -4.5q13 0 26 4.5t33 24.5l58 -57v0zM446 356q0 51 -1.5 84.5t-5.5 55.5 t-11 35.5t-17 24.5q-15 17 -37.5 27.5t-51.5 10.5t-52 -10.5t-38 -27.5q-10 -11 -16.5 -24.5t-10.5 -35.5t-5.5 -55.5t-1.5 -84.5t1.5 -84.5t5.5 -55.5t10.5 -35.5t16.5 -24.5q15 -17 38 -27.5t52 -10.5t51.5 10.5t37.5 27.5q10 11 17 24.5t11 35.5t5.5 55.5t1.5 84.5z M585 356q0 -46 -1 -86t-7.5 -75t-21 -65.5t-41.5 -57.5q-38 -38 -84.5 -58t-107.5 -20t-108 20t-85 58q-27 27 -41.5 57.5t-20.5 65.5t-7 75t-1 86t1 86t7 75t20.5 65.5t41.5 57.5q38 38 85 58t108 20t107.5 -20t84.5 -58q27 -27 41.5 -57.5t21 -65.5t7.5 -75t1 -86z" glyph-name="Otilde" horiz-adv-x="644"/>
<glyph unicode="Ö" d="M156 783v125h111v-125h-111zM377 783v125h111v-125h-111zM446 356q0 51 -1.5 84.5t-5.5 55.5t-11 35.5t-17 24.5q-15 17 -37.5 27.5t-51.5 10.5t-52 -10.5t-38 -27.5q-10 -11 -16.5 -24.5t-10.5 -35.5t-5.5 -55.5t-1.5 -84.5t1.5 -84.5t5.5 -55.5t10.5 -35.5t16.5 -24.5 q15 -17 38 -27.5t52 -10.5t51.5 10.5t37.5 27.5q10 11 17 24.5t11 35.5t5.5 55.5t1.5 84.5zM585 356q0 -46 -1 -86t-7.5 -75t-21 -65.5t-41.5 -57.5q-38 -38 -84.5 -58t-107.5 -20t-108 20t-85 58q-27 27 -41.5 57.5t-20.5 65.5t-7 75t-1 86t1 86t7 75t20.5 65.5t41.5 57.5 q38 38 85 58t108 20t107.5 -20t84.5 -58q27 -27 41.5 -57.5t21 -65.5t7.5 -75t1 -86z" glyph-name="Odieresis" horiz-adv-x="644"/>
<glyph unicode="×" d="M412 63l-141 141l-140 -141l-82 82l141 141l-141 141l82 82l140 -141l141 141l82 -82l-141 -141l141 -141z" glyph-name="multiply"/>
<glyph unicode="Ø" d="M385 578q-26 16 -63 16q-29 0 -52 -10.5t-38 -27.5q-10 -11 -16.5 -24.5t-10.5 -35.5t-5.5 -55.5t-1.5 -84.5q0 -59 2 -94t7 -57l178 373v0zM446 356q0 59 -2.5 94t-7.5 57l-178 -372q28 -17 64 -17q29 0 51.5 10.5t37.5 27.5q10 11 17 24.5t11 35.5t5.5 55.5t1.5 84.5z M585 356q0 -46 -1 -86t-7.5 -75t-21 -65.5t-41.5 -57.5q-38 -38 -84.5 -58t-107.5 -20q-65 0 -113 22l-29 -60h-99l53 111l-5 5q-27 27 -41.5 57.5t-20.5 65.5t-7 75t-1 86t1 86t7 75t20.5 65.5t41.5 57.5q38 38 85 58t108 20q65 0 113 -22l29 60h98l-53 -111l5 -5 q27 -27 41.5 -57.5t21 -65.5t7.5 -75t1 -86z" glyph-name="Oslash" horiz-adv-x="652"/>
<glyph unicode="Ù" d="M302 781l-114 170h137l64 -170h-87zM596 244q0 -57 -20.5 -103t-56 -78.5t-83 -50.5t-102.5 -18t-102.5 18t-83 50.5t-56 78.5t-20.5 103v468h139v-463q0 -62 33 -96.5t90 -34.5t90.5 34.5t33.5 96.5v463h138v-468v0z" glyph-name="Ugrave" horiz-adv-x="668"/>
<glyph unicode="Ú" d="M366 781h-87l64 170h137zM596 244q0 -57 -20.5 -103t-56 -78.5t-83 -50.5t-102.5 -18t-102.5 18t-83 50.5t-56 78.5t-20.5 103v468h139v-463q0 -62 33 -96.5t90 -34.5t90.5 34.5t33.5 96.5v463h138v-468v0z" glyph-name="Uacute" horiz-adv-x="668"/>
<glyph unicode="Û" d="M417 781l-83 91l-83 -91h-101l132 169h104l132 -169h-101zM596 244q0 -57 -20.5 -103t-56 -78.5t-83 -50.5t-102.5 -18t-102.5 18t-83 50.5t-56 78.5t-20.5 103v468h139v-463q0 -62 33 -96.5t90 -34.5t90.5 34.5t33.5 96.5v463h138v-468v0z" glyph-name="Ucircumflex" horiz-adv-x="668"/>
<glyph unicode="Ü" d="M389 783v125h111v-125h-111zM168 783v125h111v-125h-111zM596 244q0 -57 -20.5 -103t-56 -78.5t-83 -50.5t-102.5 -18t-102.5 18t-83 50.5t-56 78.5t-20.5 103v468h139v-463q0 -62 33 -96.5t90 -34.5t90.5 34.5t33.5 96.5v463h138v-468v0z" glyph-name="Udieresis" horiz-adv-x="668"/>
<glyph unicode="Ý" d="M317 781h-87l64 170h137zM355 292v-292h-138v292l-214 420h151l133 -287l131 287h151z" glyph-name="Yacute" horiz-adv-x="572"/>
<glyph unicode="Þ" d="M455 360q0 44 -27.5 70.5t-75.5 26.5h-130v-195h130q48 0 75.5 27t27.5 71zM594 360q0 -45 -16 -85.5t-46.5 -71t-74 -48t-98.5 -17.5h-137v-138h-139v712h139v-131h137q55 0 98.5 -17.5t74 -47.5t46.5 -70.5t16 -85.5z" glyph-name="Thorn" horiz-adv-x="633"/>
<glyph unicode="ß" d="M516 161q0 -79 -41 -119q-21 -21 -51.5 -31.5t-74.5 -10.5h-52v110h26q28 0 45 15t17 47v144q0 30 -15 45q-16 16 -45 16h-28v102h28q24 0 42 14t18 46q0 28 -19 45q-23 21 -70 21q-53 0 -73 -24.5t-20 -69.5v-511h-130v521q0 52 17 89.5t47 61.5t71.5 35t89.5 11 q47 0 87 -10.5t69 -32t45 -54.5t16 -78q0 -46 -19 -72.5t-42 -40.5q28 -14 45 -38t17 -71v-160v0z" glyph-name="germandbls" horiz-adv-x="574"/>
<glyph unicode="à" d="M337 220h-103q-35 0 -54 -15.5t-19 -43.5q0 -27 18.5 -43.5t56.5 -16.5q27 0 46 4t36 21q19 18 19 66v28zM229 604l-114 170h137l64 -170h-87zM340 0v45q-26 -26 -54.5 -38t-73.5 -12q-87 0 -133 46q-21 22 -32 52t-11 65q0 31 11 58.5t33 48t55.5 32.5t78.5 12h123v26 q0 43 -22.5 62.5t-74.5 19.5q-19 0 -33 -2.5t-25.5 -7.5t-21.5 -13t-20 -20l-83 81q38 42 80.5 57t107.5 15q110 0 166 -46t56 -138v-343h-127z" glyph-name="agrave" horiz-adv-x="534"/>
<glyph unicode="á" d="M337 220h-103q-35 0 -54 -15.5t-19 -43.5q0 -27 18.5 -43.5t56.5 -16.5q27 0 46 4t36 21q19 18 19 66v28zM293 604h-87l64 170h137zM340 0v45q-26 -26 -54.5 -38t-73.5 -12q-87 0 -133 46q-21 22 -32 52t-11 65q0 31 11 58.5t33 48t55.5 32.5t78.5 12h123v26 q0 43 -22.5 62.5t-74.5 19.5q-19 0 -33 -2.5t-25.5 -7.5t-21.5 -13t-20 -20l-83 81q38 42 80.5 57t107.5 15q110 0 166 -46t56 -138v-343h-127z" glyph-name="aacute" horiz-adv-x="534"/>
<glyph unicode="â" d="M337 220h-103q-35 0 -54 -15.5t-19 -43.5q0 -27 18.5 -43.5t56.5 -16.5q27 0 46 4t36 21q19 18 19 66v28zM344 604l-83 91l-83 -91h-101l132 169h104l132 -169h-101zM340 0v45q-26 -26 -54.5 -38t-73.5 -12q-87 0 -133 46q-21 22 -32 52t-11 65q0 31 11 58.5t33 48 t55.5 32.5t78.5 12h123v26q0 43 -22.5 62.5t-74.5 19.5q-19 0 -33 -2.5t-25.5 -7.5t-21.5 -13t-20 -20l-83 81q38 42 80.5 57t107.5 15q110 0 166 -46t56 -138v-343h-127z" glyph-name="acircumflex" horiz-adv-x="534"/>
<glyph unicode="ã" d="M337 220h-103q-35 0 -54 -15.5t-19 -43.5q0 -27 18.5 -43.5t56.5 -16.5q27 0 46 4t36 21q19 18 19 66v28zM441 674q-33 -33 -58.5 -46t-54.5 -13q-22 0 -39 5.5t-38 17.5q-14 8 -27.5 13t-28.5 5q-13 0 -26 -4.5t-33 -24.5l-56 57q33 33 58 46t54 13q23 0 39.5 -5 t37.5 -18q15 -9 27.5 -13.5t27.5 -4.5q13 0 26 4.5t33 24.5l58 -57v0zM340 0v45q-26 -26 -54.5 -38t-73.5 -12q-87 0 -133 46q-21 22 -32 52t-11 65q0 31 11 58.5t33 48t55.5 32.5t78.5 12h123v26q0 43 -22.5 62.5t-74.5 19.5q-19 0 -33 -2.5t-25.5 -7.5t-21.5 -13t-20 -20 l-83 81q38 42 80.5 57t107.5 15q110 0 166 -46t56 -138v-343h-127z" glyph-name="atilde" horiz-adv-x="534"/>
<glyph unicode="ä" d="M95 606v125h111v-125h-111zM316 606v125h111v-125h-111zM337 220h-103q-35 0 -54 -15.5t-19 -43.5q0 -27 18.5 -43.5t56.5 -16.5q27 0 46 4t36 21q19 18 19 66v28zM340 0v45q-26 -26 -54.5 -38t-73.5 -12q-87 0 -133 46q-21 22 -32 52t-11 65q0 31 11 58.5t33 48 t55.5 32.5t78.5 12h123v26q0 43 -22.5 62.5t-74.5 19.5q-19 0 -33 -2.5t-25.5 -7.5t-21.5 -13t-20 -20l-83 81q38 42 80.5 57t107.5 15q110 0 166 -46t56 -138v-343h-127z" glyph-name="adieresis" horiz-adv-x="534"/>
<glyph unicode="å" d="M319 715q0 24 -17 41t-41 17t-41 -17t-17 -41t17 -41.5t41 -17.5t41 17.5t17 41.5zM337 220h-103q-35 0 -54 -15.5t-19 -43.5q0 -27 18.5 -43.5t56.5 -16.5q27 0 46 4t36 21q19 18 19 66v28zM392 715q0 -27 -10.5 -51t-28 -41.5t-41.5 -28t-51 -10.5t-51 10.5t-41.5 28 t-28 41.5t-10.5 51t10.5 51t28 41.5t41.5 28t51 10.5t51 -10t41.5 -28t28 -42t10.5 -51zM340 0v45q-26 -26 -54.5 -38t-73.5 -12q-87 0 -133 46q-21 22 -32 52t-11 65q0 31 11 58.5t33 48t55.5 32.5t78.5 12h123v26q0 43 -22.5 62.5t-74.5 19.5q-19 0 -33 -2.5t-25.5 -7.5 t-21.5 -13t-20 -20l-83 81q38 42 80.5 57t107.5 15q110 0 166 -46t56 -138v-343h-127z" glyph-name="aring" horiz-adv-x="534"/>
<glyph unicode="æ" d="M663 309q-1 17 -3.5 29.5t-8.5 26.5q-11 23 -32.5 38.5t-54.5 15.5t-54.5 -15.5t-32.5 -38.5q-6 -14 -8.5 -26.5t-3.5 -29.5h198v0zM337 220h-103q-35 0 -54 -15.5t-19 -43.5q0 -27 18.5 -43.5t56.5 -16.5q27 0 46 4t36 21q19 18 19 66v28zM465 220q0 -51 29.5 -83.5 t84.5 -32.5q43 0 68 12t50 37l79 -77q-20 -20 -40 -35t-43.5 -25.5t-51.5 -16t-63 -5.5q-53 0 -100.5 16.5t-82.5 56.5q-21 -23 -42 -37.5t-43.5 -22.5t-46.5 -10.5t-51 -2.5q-86 0 -133 47q-21 22 -32 52t-11 65q0 31 11 58.5t33 48t55.5 32.5t78.5 12h123v26 q0 43 -22.5 62.5t-74.5 19.5q-19 0 -33 -2.5t-25.5 -7.5t-21.5 -13t-20 -20l-83 81q38 42 80.5 57t107.5 15q118 0 171 -57q28 29 65.5 43t82.5 14q54 0 96.5 -19t71.5 -52t44 -78.5t15 -99.5v-58h-326z" glyph-name="ae" horiz-adv-x="838"/>
<glyph unicode="ç" d="M281 -206h-121l69 146h96zM452 65q-35 -36 -76.5 -53.5t-95.5 -17.5q-39 0 -80.5 12t-75 42.5t-55.5 82t-22 130.5t22 130.5t55.5 81.5t75 42t80.5 12q54 0 95.5 -17t76.5 -53l-88 -88q-20 22 -39 31.5t-45 9.5q-46 0 -74 -34q-15 -19 -22 -46t-7 -69q0 -80 29 -116 q28 -34 74 -34q26 0 45 9.5t39 31.5l88 -87v0z" glyph-name="ccedilla" horiz-adv-x="480"/>
<glyph unicode="è" d="M373 309q-1 17 -3.5 29.5t-8.5 26.5q-11 23 -32.5 38.5t-54.5 15.5t-54.5 -15.5t-32.5 -38.5q-6 -14 -8.5 -26.5t-3.5 -29.5h198v0zM245 604l-114 170h137l64 -170h-87zM175 220q0 -51 29.5 -83.5t84.5 -32.5q43 0 68 12t50 37l79 -77q-20 -20 -40 -35t-43.5 -25.5 t-51.5 -16t-63 -5.5q-46 0 -89.5 12t-77 42.5t-54 82t-20.5 130.5q0 64 16.5 113.5t46.5 83.5t71.5 51.5t92.5 17.5q54 0 96.5 -19t71.5 -52t44 -78.5t15 -99.5v-58h-326z" glyph-name="egrave" horiz-adv-x="548"/>
<glyph unicode="é" d="M373 309q-1 17 -3.5 29.5t-8.5 26.5q-11 23 -32.5 38.5t-54.5 15.5t-54.5 -15.5t-32.5 -38.5q-6 -14 -8.5 -26.5t-3.5 -29.5h198v0zM309 604h-87l64 170h137zM175 220q0 -51 29.5 -83.5t84.5 -32.5q43 0 68 12t50 37l79 -77q-20 -20 -40 -35t-43.5 -25.5t-51.5 -16 t-63 -5.5q-46 0 -89.5 12t-77 42.5t-54 82t-20.5 130.5q0 64 16.5 113.5t46.5 83.5t71.5 51.5t92.5 17.5q54 0 96.5 -19t71.5 -52t44 -78.5t15 -99.5v-58h-326z" glyph-name="eacute" horiz-adv-x="548"/>
<glyph unicode="ê" d="M373 309q-1 17 -3.5 29.5t-8.5 26.5q-11 23 -32.5 38.5t-54.5 15.5t-54.5 -15.5t-32.5 -38.5q-6 -14 -8.5 -26.5t-3.5 -29.5h198v0zM360 604l-83 91l-83 -91h-101l132 169h104l132 -169h-101zM175 220q0 -51 29.5 -83.5t84.5 -32.5q43 0 68 12t50 37l79 -77 q-20 -20 -40 -35t-43.5 -25.5t-51.5 -16t-63 -5.5q-46 0 -89.5 12t-77 42.5t-54 82t-20.5 130.5q0 64 16.5 113.5t46.5 83.5t71.5 51.5t92.5 17.5q54 0 96.5 -19t71.5 -52t44 -78.5t15 -99.5v-58h-326z" glyph-name="ecircumflex" horiz-adv-x="548"/>
<glyph unicode="ë" d="M111 606v125h111v-125h-111zM332 606v125h111v-125h-111zM373 309q-1 17 -3.5 29.5t-8.5 26.5q-11 23 -32.5 38.5t-54.5 15.5t-54.5 -15.5t-32.5 -38.5q-6 -14 -8.5 -26.5t-3.5 -29.5h198v0zM175 220q0 -51 29.5 -83.5t84.5 -32.5q43 0 68 12t50 37l79 -77 q-20 -20 -40 -35t-43.5 -25.5t-51.5 -16t-63 -5.5q-46 0 -89.5 12t-77 42.5t-54 82t-20.5 130.5q0 64 16.5 113.5t46.5 83.5t71.5 51.5t92.5 17.5q54 0 96.5 -19t71.5 -52t44 -78.5t15 -99.5v-58h-326z" glyph-name="edieresis" horiz-adv-x="548"/>
<glyph unicode="ì" d="M121 604l-114 170h137l64 -170h-87zM73 0v521h130v-521h-130z" glyph-name="igrave" horiz-adv-x="275"/>
<glyph unicode="í" d="M160 604h-87l64 170h137zM73 0v521h130v-521h-130z" glyph-name="iacute" horiz-adv-x="275"/>
<glyph unicode="î" d="M222 604l-83 91l-83 -91h-101l132 169h104l132 -169h-101zM73 0v521h130v-521h-130z" glyph-name="icircumflex" horiz-adv-x="275"/>
<glyph unicode="ï" d="M194 606v125h111v-125h-111zM-27 606v125h111v-125h-111zM73 0v521h130v-521h-130z" glyph-name="idieresis" horiz-adv-x="275"/>
<glyph unicode="ð" d="M356 254q0 38 -4 69t-23 51q-22 22 -58 22q-35 0 -57 -22q-19 -20 -23.5 -51t-4.5 -69t4.5 -69.5t23.5 -51.5q22 -22 57 -22q36 0 58 22q19 20 23 51.5t4 69.5zM486 254q0 -69 -11.5 -115.5t-46.5 -82.5q-24 -25 -62 -43.5t-95 -18.5t-95 18.5t-62 43.5 q-35 36 -46.5 82.5t-11.5 115.5t11.5 115t46.5 82q32 34 89 49q18 5 37 7t39 0l-34 62h-114v91h68l-31 60h139l31 -60h92v-91h-46l40 -77q18 -36 30 -63.5t19 -54t10 -55t3 -65.5z" glyph-name="eth"/>
<glyph unicode="ñ" d="M470 674q-33 -33 -58.5 -46t-54.5 -13q-22 0 -39 5.5t-38 17.5q-14 8 -27.5 13t-28.5 5q-13 0 -26 -4.5t-33 -24.5l-56 57q33 33 58 46t54 13q23 0 39.5 -5t37.5 -18q15 -9 27.5 -13.5t27.5 -4.5q13 0 26 4.5t33 24.5l58 -57v0zM376 0v315q0 27 -7.5 45t-20 29t-28 16 t-30.5 5t-30.5 -5t-28 -16t-20.5 -29t-8 -45v-315h-130v521h127v-48q26 27 60 40.5t70 13.5q39 0 70 -12t53 -34q32 -32 42.5 -68.5t10.5 -79.5v-333h-130z" glyph-name="ntilde" horiz-adv-x="573"/>
<glyph unicode="ò" d="M236 604l-114 170h137l64 -170h-87zM362 261q0 41 -5 73.5t-25 52.5q-23 23 -61 23q-37 0 -60 -23q-20 -20 -25 -52.5t-5 -73.5t5 -74t25 -53q23 -23 60 -23q38 0 61 23q20 20 25 53t5 74zM492 261q0 -71 -12 -118.5t-47 -84.5q-24 -26 -64 -45t-98 -19t-97.5 19 t-63.5 45q-35 37 -47 84.5t-12 118.5t12 118t47 84q24 26 63.5 45t97.5 19t98 -19t64 -45q35 -37 47 -84t12 -118z" glyph-name="ograve"/>
<glyph unicode="ó" d="M304 604h-87l64 170h137zM362 261q0 41 -5 73.5t-25 52.5q-23 23 -61 23q-37 0 -60 -23q-20 -20 -25 -52.5t-5 -73.5t5 -74t25 -53q23 -23 60 -23q38 0 61 23q20 20 25 53t5 74zM492 261q0 -71 -12 -118.5t-47 -84.5q-24 -26 -64 -45t-98 -19t-97.5 19t-63.5 45 q-35 37 -47 84.5t-12 118.5t12 118t47 84q24 26 63.5 45t97.5 19t98 -19t64 -45q35 -37 47 -84t12 -118z" glyph-name="oacute"/>
<glyph unicode="ô" d="M355 604l-83 91l-83 -91h-101l132 169h104l132 -169h-101zM362 261q0 41 -5 73.5t-25 52.5q-23 23 -61 23q-37 0 -60 -23q-20 -20 -25 -52.5t-5 -73.5t5 -74t25 -53q23 -23 60 -23q38 0 61 23q20 20 25 53t5 74zM492 261q0 -71 -12 -118.5t-47 -84.5q-24 -26 -64 -45 t-98 -19t-97.5 19t-63.5 45q-35 37 -47 84.5t-12 118.5t12 118t47 84q24 26 63.5 45t97.5 19t98 -19t64 -45q35 -37 47 -84t12 -118z" glyph-name="ocircumflex"/>
<glyph unicode="õ" d="M452 674q-33 -33 -58.5 -46t-54.5 -13q-22 0 -39 5.5t-38 17.5q-14 8 -27.5 13t-28.5 5q-13 0 -26 -4.5t-33 -24.5l-56 57q33 33 58 46t54 13q23 0 39.5 -5t37.5 -18q15 -9 27.5 -13.5t27.5 -4.5q13 0 26 4.5t33 24.5l58 -57v0zM362 261q0 41 -5 73.5t-25 52.5 q-23 23 -61 23q-37 0 -60 -23q-20 -20 -25 -52.5t-5 -73.5t5 -74t25 -53q23 -23 60 -23q38 0 61 23q20 20 25 53t5 74zM492 261q0 -71 -12 -118.5t-47 -84.5q-24 -26 -64 -45t-98 -19t-97.5 19t-63.5 45q-35 37 -47 84.5t-12 118.5t12 118t47 84q24 26 63.5 45t97.5 19 t98 -19t64 -45q35 -37 47 -84t12 -118z" glyph-name="otilde"/>
<glyph unicode="ö" d="M106 606v125h111v-125h-111zM327 606v125h111v-125h-111zM362 261q0 41 -5 73.5t-25 52.5q-23 23 -61 23q-37 0 -60 -23q-20 -20 -25 -52.5t-5 -73.5t5 -74t25 -53q23 -23 60 -23q38 0 61 23q20 20 25 53t5 74zM492 261q0 -71 -12 -118.5t-47 -84.5q-24 -26 -64 -45 t-98 -19t-97.5 19t-63.5 45q-35 37 -47 84.5t-12 118.5t12 118t47 84q24 26 63.5 45t97.5 19t98 -19t64 -45q35 -37 47 -84t12 -118z" glyph-name="odieresis"/>
<glyph unicode="÷" d="M207 423v130h130v-130h-130zM207 18v130h130v-130h-130zM46 225v121h451v-121h-451z" glyph-name="divide"/>
<glyph unicode="ø" d="M320 397q-21 13 -49 13q-37 0 -60 -23q-20 -20 -25 -52.5t-5 -73.5q0 -24 1 -46t6 -40l132 222v0zM362 261q0 24 -1.5 45.5t-6.5 39.5l-131 -222q21 -13 48 -13q38 0 61 23q20 20 25 53t5 74zM492 261q0 -71 -12 -118.5t-47 -84.5q-24 -26 -64 -45t-98 -19q-32 0 -57.5 6 t-46.5 17l-36 -61h-79l59 101l-1 1q-36 36 -47.5 84t-11.5 119t12 118t47 84q24 26 63.5 45t97.5 19q61 0 105 -22l35 60h80l-60 -101l2 -1q35 -37 47 -84t12 -118z" glyph-name="oslash"/>
<glyph unicode="ù" d="M251 604l-114 170h137l64 -170h-87zM373 0v48q-26 -27 -60 -40.5t-70 -13.5q-39 0 -70 12t-53 34q-32 32 -42.5 68.5t-10.5 79.5v333h130v-315q0 -27 7.5 -45t20 -29t28 -16t30.5 -5t30.5 5t28 16t20.5 29t8 45v315h130v-521h-127z" glyph-name="ugrave" horiz-adv-x="573"/>
<glyph unicode="ú" d="M315 604h-87l64 170h137zM373 0v48q-26 -27 -60 -40.5t-70 -13.5q-39 0 -70 12t-53 34q-32 32 -42.5 68.5t-10.5 79.5v333h130v-315q0 -27 7.5 -45t20 -29t28 -16t30.5 -5t30.5 5t28 16t20.5 29t8 45v315h130v-521h-127z" glyph-name="uacute" horiz-adv-x="573"/>
<glyph unicode="û" d="M366 604l-83 91l-83 -91h-101l132 169h104l132 -169h-101zM373 0v48q-26 -27 -60 -40.5t-70 -13.5q-39 0 -70 12t-53 34q-32 32 -42.5 68.5t-10.5 79.5v333h130v-315q0 -27 7.5 -45t20 -29t28 -16t30.5 -5t30.5 5t28 16t20.5 29t8 45v315h130v-521h-127z" glyph-name="ucircumflex" horiz-adv-x="573"/>
<glyph unicode="ü" d="M338 606v125h111v-125h-111zM117 606v125h111v-125h-111zM373 0v48q-26 -27 -60 -40.5t-70 -13.5q-39 0 -70 12t-53 34q-32 32 -42.5 68.5t-10.5 79.5v333h130v-315q0 -27 7.5 -45t20 -29t28 -16t30.5 -5t30.5 5t28 16t20.5 29t8 45v315h130v-521h-127z" glyph-name="udieresis" horiz-adv-x="573"/>
<glyph unicode="ý" d="M276 604h-87l64 170h137zM267 -84q-17 -45 -39 -67q-23 -23 -51.5 -31.5t-60.5 -8.5h-51v117h30q28 0 41.5 9t23.5 38l22 64l-178 484h137l108 -322l104 322h137z" glyph-name="yacute" horiz-adv-x="494"/>
<glyph unicode="þ" d="M379 261q0 32 -3 59t-12 47t-26.5 31.5t-46.5 11.5t-46.5 -11.5t-26.5 -31.5t-12 -47t-3 -59t3 -59.5t12 -47.5t26.5 -31.5t46.5 -11.5t46.5 11.5t26.5 31.5t12 47.5t3 59.5zM509 261q0 -29 -1 -60t-6 -60t-16 -55t-30 -45q-22 -22 -55.5 -34.5t-71.5 -12.5 q-40 0 -70 11.5t-56 40.5v-237h-130v903h130v-237q26 29 56 40.5t70 11.5q38 0 71.5 -12.5t55.5 -34.5q19 -20 30 -45.5t16 -54.5t6 -59.5t1 -59.5z" glyph-name="thorn" horiz-adv-x="562"/>
</font>
</defs>
</svg>
